<?xml version="1.0" encoding="UTF-8"?>
<!-- Copyright (c) 2026 OpenBikeControl UG (haftungsbeschränkt). All rights reserved. Licensed under the Non-Commercial License — see /LICENSE. -->
<svg id="Ebene_1" xmlns="http://www.w3.org/2000/svg" viewBox="0 0 766.94 1124.01">
    <path d="M723.11,420.96c1.74.23.94-2.27.99-3.48.15-3.57.18-7.49.05-11.06-.48-12.83-2.65-27.15-1.1-40,.13-1.07-.04-2.3.98-3.02,12.34-1.65,33.53.67,36.82,15.3,3.48,15.44,2.48,40.27,3.25,56.75,3.92,84.08,3.63,168.91-.05,252.97-.75,17.1.3,39.33-3.23,55.77-3.85,17.91-21.58,19.24-37.09,19.63l-1.64-2.36c-2.08-23.12,3.08-45.19-1.79-45.02-4.12.14-18.85-3.01-25.68-3.52-4.32-.33-13.63-1.53-14.31,3.76-4.8,69.62-9.66,139.39-17.23,208.77-2.57,23.5-5.05,47.47-8.13,70.87-11.12,84.45-61.79,127.67-147.32,127.68h-225.08c-33.94-.86-63.24-1.72-93.76-18.24-54.45-29.49-60.47-71.83-68.59-128.41-35.53-247.41-35.69-501.12-10.1-749.88,3.8-36.94,7.01-81.74,14.46-117.54C151.26-18.37,284.63,1.09,385.64,1.01c43.09-.04,88.96-1.69,131.95.97,77.66,4.8,124.17,41.92,136.37,119.63,7.55,48.12,12.3,101.13,17.14,149.86,4.54,45.7,6,91.75,9.45,137.55l1.05,1.95c2.35,2.25,11.66,2.25,15.04,2.03,11.78-.77,27.66-13.32,26.47,7.96ZM315.89,4.26c-62.29,1.4-125.23.26-165.61,55.39-21.16,28.9-23.72,62.46-28.06,96.94-20.25,160.99-29.77,324.6-26.08,486.83,2.49,109.82,13.45,219.59,28.83,328.17,6.84,48.3,5.75,85.98,48.23,118.77,39.45,30.46,72.42,27.52,119.44,28.56,68.85,1.53,142.23,3.56,211,1.08,87.26-3.15,136.39-36.78,147.33-126.67,11.21-92.08,19.5-185.19,25.14-277.86,11.34-186.48.13-375.6-22.13-560.89-5.79-48.15-9.73-87.6-50.4-119.6-41.48-32.63-87.11-28.8-137.01-29.99-50-1.19-100.53-1.88-150.66-.75ZM756.28,745.58c4.84-16.44,3.1-42,3.78-58.15,3.45-82.34,3.72-165.73.05-247.97-.16-3.58,1.21-37.69-2.12-55.98-.81-11.89-18.76-19.4-31.57-15.6,3.21,16.16,2.59,202.89,2.5,223.45-.17,41.73-3.34,81.63-1.55,49.98,1.42-25.12-3.67,116.03-.95,117.91s25.02,2.78,29.86-13.66ZM703.6,417.97c-7.06.1-10.7,1-15.5,0l-6.99-1c.62,27.5.57,55.02.95,82.54.83,59.57,1.72,119.37.08,179l-1.99,27.87c.63.99,1,1.49,2.28,1.45,5.08-.14,36.55,5.02,36.55,5.02,3.55-17.4,2.47-35.64,3.08-53.42,2.49-72.04,4.71-146.12.05-217.97-.45-6.97.53-20.28-2.55-26.45-2.06-4.12-11.88,2.4-15.96,2.96Z"/>
    <path d="M87.23,398.1l2.86-.13c-3.05,20.18-29.55,26.5-45.99,18-1.1,10.81-.58,21.69-.96,32.54-2.77,78.26-2.32,156.67,0,234.92.21,6.97,1.29,29.99,1.94,29.05,10.35-8.29,30.18-2.87,36.26,1.74,3.3,2.5,12.59,13.79,9.75,16.74-2.27,2.36-5.99-5.32-7.02-6.47-5.68-6.35-10.68-10.43-19.58-11.41-6.21-.69-18.45.79-19.45,8.34s3.43,37.62-.64,40.62c-6.28,4.63-27.65-1.28-32.86-7.02s-5.7-16.97-6.45-24.55C-1.88,659.19-.05,583.18,1.14,511.51c.66-39.8-1.18-85.94,4.08-124.92,1.38-10.2,1.54-14.72,11.5-19.5,5.52-2.65,26.66-9.48,28.36-.6,2.12,11.08-1.76,28.31.08,39.92,2.56,16.19,40.39,8.2,42.07-8.31ZM41.1,366.96c-5.04-1.16-29.13,2.9-29.02,9.01-1.31-.27-1.59,1.84-1.74,2.74-2.8,17.2-2.46,36.32-3.21,53.8-2.83,65.64-3.5,131.23-2,196.92.81,35.62-.06,76.99,5.08,111.92.43,2.89,1.3,5.76,1.89,8.61,7.73,7.24,21.89,9.8,28.35,8.87l1.2-.8c.18-16.41-.13-33.1-.52-49.61-2.18-92.07-3.34-263.9,0-281.92l-.04-59.55Z"/>
    <path d="M148.1,319.97c1.76.22.95-2.26,1-3.49.55-13.31.18-26.67,1.01-40,1.22-19.51,4.21-38.97,5-58.52l1.98,1.01c.27-4.74-.39-9.71.09-14.43s2.88-10.95,2.94-16.12c.5-41.41,2.72-88.8,32.01-120.94,7.78-8.54,29.8-23.77,41.19-26.81,5.75-1.53,9-.47,13.16-1.03,70.72-9.51,147.42-1.91,219.17-4.74,42.99,2.94,86.17-5.79,121.92,24.08,4.72,3.94,21.92,22.19,24.02,26.98.89,2.02.14,3.69.5,5.28.23,1.01,2.48,1.23,3.48,2.73,5,7.53,1.41,21.48,5.21,29.78.96,2.1,3.07.57,3.39,1.77-.94,5.11.75,10.11.98,14.9.52,10.99-2.1,30.99,1.66,40.31.5,1.23,2.08,1.08,2.27,1.93,6.18,27.65,2.27,59.7,5.98,86.85.39,2.84,2.37,5.56,2.94,9.06,1.22,7.51-.11,19.19,2.19,25.62,6.39,17.9,2.52,51.62,3.88,72.31.7,10.64,2.96,18.13,3.04,29.95.62,100.06,4.65,204.98,1.05,305.06-.82,22.76-4.38,44.87-5.09,67.99-2.01,64.82-12.09,135.14-19.96,199.95-4.86,40.02-11.87,74.35-49.46,96.54-10.24,6.04-40.39,11.16-53.04,11.96-72.65,4.61-150.09,1.73-222.95-.03-39.3-.95-69.63,2.09-101.01-25.99-6.84-6.12-21.97-24.36-24.11-32.97-.63-2.53.53-4.2.14-6.05-5.48-26.47-9.78-48.26-12.55-75.46-9.41-92.33-17.5-184.67-20.05-277.95,1.52-81.1-.65-162.07,1.08-243,.27-12.55-1.37-28.02-.04-40.04.42-3.84,2.61-6.45,3.03-9.97,2.51-20.98-.43-46.11,1.94-67.06.17-1.5.21-3.09,2.04-3.46v14ZM169.43,133.27c-3.49,5.2-1.6,24.59-3.38,32.15-1.16,4.91-4.07,5.33-2.89,13,1.19,7.73,2.64,12.2.72,20.83-1.66,7.46-1.95,9.22-2.79,17.21-4.36,40.98-7.3,82.2-10,123-.82,12.43.48,30.47-2.49,41.51-3.67,13.62-2.06,22.55-2.45,36.55-3.2,114.82-3.42,230.72,2.92,345,1.51,27.24,5.16,53.76,6.03,80.97.3,9.41.6,9.93,2.74,18.26,3.31,12.86.75,32.01,2.27,45.73.4,3.65,2.42,6.67,2.93,10.07,6.08,40.95,1.52,100.97,30.57,133.43,32.97,36.84,70.17,31.06,115.06,31.94,61.83,1.21,124.08,1.82,185.92,0,42.71-1.26,74.17,1.47,101.95-36.05,14.72-19.88,17.65-36.27,20.57-60.43,11.75-96.96,22.54-194.19,24.97-292.03,2.55-102.79,2.81-207.57-1.92-310-.96-20.77-1.35-41.94-4.97-62.03-2.21-12.29-.23-25.04-2.32-37.68-4-24.11-3.03-45.6-7.52-69.48-1.16-6.19-.28-14.6-1.37-21.63-.85-5.47-3.33-10.95-3.85-16.15-1.31-13,1.21-32.84-1.05-44.95-.4-2.13-3.28-7.1-4.28-10.72-1.93-7.01-1.37-15.14-3.2-20.79-13.62-42.22-58.13-59.4-98.93-61.08-70.86-2.91-150.04-1.3-221.01,1.09-7.9.27-16.19-.54-24.03-.03-17.91,1.15-35.38,8.04-51.74,14.26-8.94,3.39-23.7,18.82-29.17,26.83-8.3,12.14-10.41,22.44-13.31,36.69-1.47,7.21.43,7.99-3.95,14.52Z"/>
    <path d="M591.1,592.98c-.39,2.01-2.11,1.63-3.5,1.98-13.41,3.39-34.77,5.16-49.12,6.88-108.08,12.91-218.27,10.51-325.71-7.04-1.66-.27-8.6-.89-8.65-2.33-.07-2.03,2.87-.71,3.6-.64,20.02,2.1,40,5.79,60.01,8.01,72.65,8.07,144.98,10.5,217.86,5.12,35.31-2.61,70.29-8.7,105.51-11.98Z"/>
    <path d="M590.1,524.98l-2.99,1.58c-96.64-15.87-192.81-20.72-290.5-11.59-28.51,2.66-56.77,7.71-85.17,10.83-1.3.14-8.37,1.77-8.31-.33.04-1.62,3.5-1.33,4.48-1.5,106.32-18.17,213.9-20.4,320.99-7.99,20.53,2.38,41.12,5.71,61.51,9Z"/>
    <rect x="340.1" y="276.97" width="111" height="2"/>
    <rect x="340.1" y="297.97" width="110" height="2"/>
    <path d="M389.1,893.97h-2v-102.5c0-.17,1.35-1.58,2-1.5v104Z"/>
    <path d="M407.1,893.97h-2v-104c.65-.08,2,1.33,2,1.5v102.5Z"/>
</svg>
