<!-- Copyright (c) 2026 OpenBikeControl UG (haftungsbeschränkt). All rights reserved. Licensed under the Non-Commercial License — see /LICENSE. -->
<svg xmlns="http://www.w3.org/2000/svg" id="Ebene_1" viewBox="270 0 225 252.9">
    <path d="M377 6q28-2 50 16l10 10h2l20-16q3-1 6 1l19 18q2 4 0 7l-14 19-1 3 10 12c20 28 16 61-6 87q-5 3-5 8l16 22q1 3-1 6l-18 18q-4 3-7 1l-20-15h-4l-7 7c-7 9-4 20-12 29-13 13-49 13-63 1-11-9-6-21-16-32q-3-6-10-5l-19 15q-3 2-7-1c-4-6-13-11-18-17q-2-4-1-7c3-6 11-14 15-19 3-6-1-7-5-11a68 68 0 0 1 0-93c2-3 6-5 4-9l-15-19q-1-4 1-6l19-19q3-2 6-1l19 15 3 1 12-11q16-13 37-15m0 1c-22 2-34 13-49 27-28 29-65 55-51 101 9 30 43 50 62 73 9 11 2 24 17 33 13 8 41 8 53 0 14-9 8-22 17-33 20-24 54-44 62-75 14-51-33-77-62-109a67 67 0 0 0-49-17m-75 11l-2 1-18 18q-1 4 2 7l24-23q0-2-3-3zm158 0l-4 3 24 24q5-4 3-8l-19-19zm-147 5l-4-1-23 23q0 3 2 4l24-24zm139 0v2l24 24q4-1 3-4l-23-23zM322 39l5-5-12-9h-1l-25 24v2l9 11zm145 24c0-3 9-11 9-13l-25-25h-1l-9 7-3 1zM329 201l-30-30-2 3-8 10c0 2 23 23 25 26 2 0 12-10 15-9m107 0c3-1 13 9 14 9l22-22q3-1 3-4l-9-13zm16 10l3 1 24-23-3-3-24 24zm-164-25l-1 3 23 23q1 1 3-1v-1zm21 28l-24-24q-5 4-2 9l19 17q3 2 7-2m147-1c-1 1 3 3 4 4l4-1 18-18q2-4-2-7h-1z"/>
    <path d="M423 72l22 22c10 12 12 28 1 40l-41 42a30 30 0 0 1-42 3c-14-15-32-29-45-44-9-11-10-28-1-39l38-38 13-11c24-13 39 10 55 25m-45-27q-8 2-15 7l-44 44q-14 18-1 37l44 45q20 14 39 0c14-11 26-28 40-39 12-12 16-29 5-43-13-15-32-29-45-44q-9-8-23-7"/>
    <path d="M414 182v2l-3 36c-1 24-54 25-57 2l-3-40v2l4 38c2 16 24 17 36 15q16-2 19-16l3-33zM374 31h16c4 1 4 6 0 7h-16c-4-1-4-6 0-7m0 2q-1 3 2 4h15q3-3 0-4z"/>
    <path d="M384 219c-3 3-5-3-4-5q-4 1-5-2c-1-4 4-2 5-3q-1-4 2-5c4-1 2 5 3 5q4 0 6 3c0 3-6 1-6 2zm5-8l-5-1c-1 0 0-6-2-5l-1 5-5 1c-2 3 3 1 5 2v5h2l1-5h5z"/>
    <path d="M380 141c23-3 26 33 4 34-23 2-26-32-4-34m0 1c-21 3-18 35 4 32 21-2 17-35-4-32m-1-87c25-3 27 32 5 34-23 3-26-31-5-34m0 1c-18 3-17 31 1 32 25 2 24-36-1-32m-43 42c24-3 27 32 5 34-23 2-26-31-5-34m0 1c-19 3-16 34 5 32 20-2 17-35-5-32m87-1c24-3 26 32 4 34-23 2-26-31-4-34m-1 1c-17 3-17 30 2 32 23 2 23-35-2-32"/>
    <path d="M385 151l2 2v5l1 2q0 4-3 5h-8v-14zm0 1h-7v12h7c2 0 4-6 0-6q2-1 1-4zm-10-87l5 1 2 3q1-6 7-3l-5 8v5l-4-1-1-4zm5 1l-3 1 3 6 1 5h3q0-7 4-12h-4l-2 5zm-35 42q0 6-5 9l5 1q1 3-2 4h-9q-3-1-1-4l5-5-4-1-1-4zm-1 1h-10v2h5l1 1c-1 2-7 5-7 9h11l-1-2h-5c1-4 7-5 6-10m83 12q0-2-3-1l-2 1h-4l5-13h5l4 12q-2 3-5 1m0-12l-4 1-4 11q5 0 3-2h5q0 2 4 2z"/>
    <path d="M384 162h-4v-3q4-1 4 3m-1-7l1 1-1 1h-3v-3zm44-38h-4l2-6z"/>
</svg>
