<?xml version="1.0" encoding="UTF-8"?>
<!-- Copyright (c) 2026 OpenBikeControl UG (haftungsbeschränkt). All rights reserved. Licensed under the Non-Commercial License — see /LICENSE. -->
<svg id="Ebene_1" xmlns="http://www.w3.org/2000/svg" viewBox="0 0 1432.04 1432.04">
    <path d="M673.83,179.31c88.48-3.69,180.47,20.92,256.88,64.54,13.59,7.76,28.33,19.8,41.66,26.34,6.96,3.42,12.23,4.52,19.18-.16,16.34-15.19,30.33-33.21,46.5-48.5,15.19-14.36,25.21-8.73,40.91,1.08,36.7,22.94,78,66.2,98.89,104.11,5.67,10.3,10.5,18.15,4.02,29.63-5.26,9.33-23.3,27.56-31.31,36.69-5.76,6.57-12.91,12.96-18.49,19.51-4.08,4.79-8.47,9.33-8.1,16,.4,7.28,19.49,39.43,23.93,49.11,59.71,130.24,60.72,283.83,3.3,415.03-8.74,19.97-35.83,62.67-37.22,80.78-1.9,24.78,7.17,42.89,30.33,52.76,2.52,1.07,5.45.8,7.99,2.01,3.22,1.54,25.06,23.23,27.17,26.83,6.19,10.53-2.93,19.45-9.06,27.85-25.39,34.84-75.04,84.45-111.09,107.91-12.12,7.89-19.62,9.23-31.33-.3-14.51-11.82-26.34-27.68-42.26-38.74-47.87-33.25-75.33-5.29-121.2,11.24-120.8,43.53-245.48,36.12-363.77-11.28-34.44-13.8-83.71-48.65-116.26-12.77-9.07,10-14.28,16.07-24.5,25.5-7.26,6.69-14.54,18.6-25.38,17.45-6.63-.71-22.23-14.22-28.08-18.96-31.67-25.62-63.79-58.12-88.48-90.52-7.53-9.89-21.99-24.23-12.56-36.48,3.59-4.67,22.39-23.02,27.02-25.98,4.35-2.79,9.17-2.04,14.84-6.16,18.37-13.36,21.38-45.38,14.69-65.35-8.19-24.46-21.7-50.36-30.76-75.24-46-126.2-42.32-255.44,9.29-379.21,6.32-15.16,17.66-34,22.24-48.76,2.29-7.37,1.36-11.36-1.29-18.26-4.03-10.47-9.21-11.64-16-19-11.16-12.12-35.3-38.02-42.67-51.33-5.73-10.34-1.21-16.97,4.02-26.36,21.4-38.41,76.59-96.77,115.26-117.74,7.03-3.81,12.33-5.75,19.41-.58,5.2,3.8,24.92,28.9,26.27,34.73,1.12,4.83.12,5.9,2.72,11.28,5.71,11.82,19.18,23.16,33.01,22,8.34-.7,31.88-18.01,40.84-23.18,69.44-40.1,148.95-64.17,229.47-67.53ZM689.83,184.32c-255.22,1.59-458.05,199.31-482.8,450.19-36.53,370.27,332.25,653.76,679.66,512.69,242.67-98.53,358.97-381.11,272.36-626.69-68.11-193.14-262.05-337.49-469.22-336.2ZM363.03,238c.71-.95-1.95-3.86-2.62-4.86-3.42-5.06-18.52-25.04-22.67-27.32-7.73-4.25-17.36,3.94-24.02,8.38-25.95,17.32-53.8,44.29-73.66,68.34-7.96,9.63-34.59,44.18-34.99,55.07-.29,7.85,19.95,27.17,24.93,33.69,1.17,1.49,2.76-3.77,3.8-4.51.65-.47,5.78-12.21,7.06-14.44,27.88-48.65,70.99-90.87,122.17-114.34ZM1020.03,248.02c19.11.22,37.31,15.26,51.9,26.62,24.51,19.08,45.77,42.24,62.52,68.48,7.18,11.25,11.66,24.31,21.61,33.46l1.29.31c.99-.25,1.84-.77,2.61-1.43,2.48-2.11,16.51-19.3,17.92-22.07,3.11-6.09,1.6-11.72-.98-17.73-6.6-15.36-27.84-42.85-39.36-55.64-13.51-15.01-61.35-59.91-80.12-61.93-13.33-1.43-29.04,21.04-37.39,29.93ZM363.02,241.01c-55.14,25.24-104.34,78.34-129.8,133.11,13.43,18.45,32.14,29.45,36.81,52.89,1.2.92,10.44-16.14,11.57-17.91,32.35-50.65,71.63-94.12,119.29-130.75.91-.7,1.97-1.19,3.12-1.35l-.5-1.99c-19.19,1.44-36.96-16.13-40.51-34ZM1119.02,425.03c.26-3.33,2.97-6.83,5.03-9.48,3.3-4.25,20.55-23.45,22.53-25.43,3.52-3.52,7.18-7.43,9.4-10.48-1.28-2.75-9.52-10.71-15.16-21.9-16.26-32.29-49.84-66.95-78.9-88.1-11.19-8.14-27.07-20.4-41.42-18.64-13.34,1.64-22.82,29.9-40.47,27.03,43.1,32.98,81.4,70.05,113.81,113.68,6.9,9.28,13.68,21.83,20.77,30.23,1.16,1.38,2.28,3.36,4.4,3.09ZM506,1148.03c-88.52-39.73-165.94-103.75-220.4-184.11l-22.58-35.91c.7,3.85,3.43,7.06,4.75,10.74,8.93,24.77-.36,62.79-25.73,74.75,36.64,50.32,81.69,93.86,129.47,133.5,11.75-19.24,30.07-30.22,53.05-29.03,22.67,1.18,51.24,19.45,72.78,28.23,1.75.71,7.61,4.08,8.67,1.84ZM1146.01,1032.04c-20.19-6.2-35.85-23.17-37.87-44.64-.65-6.9.76-13.55.38-20.37-38.21,55.66-83.6,104.67-140.59,141.41-12.14,7.82-25.21,14.12-36.92,22.57,25.69-4.97,46.41,8.15,65.91,22.6,2.39,1.77,9.14,8.8,11.34,8.27,51.09-37.28,99.6-79.12,137.75-129.84ZM237.49,1013.26c-5.65,4.85-12.19,10.08-17.5,15.23-8.29,8.06-16.81,12.06-10.02,24.05,15.18,26.83,54.59,67.05,78.02,87.98,10.08,9,29.23,26.5,40.32,32.68,2.55,1.42,5.13,2.94,8.15,2.86,7.76-.2,17.54-14.13,23.53-19.57,1.33-1.21,10-7.34,10-7.99-37.95-31.41-74.16-65.34-105.95-103.03-7.23-8.57-16.38-23.38-23.61-30.38-.86-.83-1.71-1.6-2.93-1.84ZM1009.01,1163.04c-.41,1.51.41,1.66.98,2.5,3,4.37,21.9,22.2,26.48,24.52,6.23,3.16,9.52,2.4,15.47-.59,9.04-4.55,27.94-21.21,36.54-28.46,27.29-22.99,60.13-55.29,80.34-84.66,3.87-5.62,9.41-10.65,6.26-17.9-1.13-2.6-18.97-20.55-22.05-22.94-.95-.73-3.79-3.19-4.91-2.41-38.07,49.69-85.32,91.91-135.77,128.78-.94.69-2.18,1.04-3.33,1.15Z"/>
    <path d="M1023.61,336.45c190.58,186.35,198.46,477.71,13.91,671.6-224.81,236.18-636.45,155.36-772.37-134.68-116.52-248.65,11.56-553.85,267.63-647.1,173.3-63.11,360.62-17.14,490.83,110.18ZM675.83,200.31c-372.85,14.51-582.72,449.2-361.63,751.01,128.94,176.02,388.03,243.38,587.17,151.56,145.45-67.06,251.97-220.78,266.65-380.36,25.51-277.43-213.18-533.07-492.19-522.22Z"/>
    <path d="M674.83,263.31c142.51-9.33,267.58,93.58,278.24,237.17,3.78,50.9.57,106.52.91,158.08.39,57.58,4.11,119.7,1.08,177-9.97,188.58-216.82,291.23-378.35,199.25-101.33-57.69-140.68-166.18-131.72-279.35,2.69-34,36.95-40.12,40.03-70.97,1.13-11.31,1.24-46.1-1.94-56.04-7.42-23.27-35.91-26.61-39.04-57.96-3.15-31.61-1.06-83.87,6.28-114.71,25.13-105.65,114.97-185.32,224.52-192.48ZM678.83,265.31c-113.49,6.48-206.28,88.39-228.5,199.5-5.48,27.39-7.06,76.84-4.29,104.69,3.28,32.96,38.43,36.11,41.02,65.98,1.19,13.71,1.41,49.02-3.02,61.06-9.34,25.38-34.5,28.68-37.06,60.94-8.67,109.43,29.21,214.64,125.72,272.35,162.4,97.1,370.49-6.1,380.35-197.26,2.88-55.79-.71-115.97-1.08-172-.34-52.13,2.96-108.59-.96-160.03-10.69-140.32-132.26-243.22-272.19-235.22Z"/>
    <path d="M681.83,320.32c87.95-6.18,163.14,44.96,192.22,127.19,13.5,38.2,9.6,72.37,9.94,112.06.08,9.81,1.89,12.56-1.94,22.98-13.82,37.61-61.47,26.75-92.48,26.44-72.97-.73-148.46.48-221.05-3.95-19.96-1.22-32.6-2.03-43.91-21.09-10.47-17.64-6.68-54.11-6.54-75.46.05-8.22-.81-16.52-.03-24.95,7.77-84.39,78.54-157.22,163.79-163.21ZM688.83,322.31c-81.49,4.01-147.9,62.85-165.12,141.88-5.32,24.43-6.18,76.07-3.68,101.31,1.19,11.97,11.25,26.41,21.68,32.32,12.25,6.93,25.5,4.62,38.85,5.15,80.76,3.21,161.94,3.21,243,4.01,5.42.05,10.92,1.43,17.01,1.09,20.25-1.13,35.86-11.9,41.21-31.79-.29-44.63,4.87-87.12-10.74-129.78-27.99-76.47-99.48-128.26-182.22-124.19Z"/>
    <path d="M533.37,718.37c14.06-13.35,24.84-10.37,42.11-10.31,76.73.28,153.42.19,230.08,1.92,34.88.79,71.03-1.72,80.2,40.8.69,49.97,4.61,94.41-16.57,140.92-67.02,147.13-271.03,134.83-334.35-9.01-20.42-46.38-15.9-88.62-15.83-138.18.9-8.27,8.37-20.46,14.36-26.14ZM553.78,710.27c-15.48,2.09-29.97,19.68-32.31,34.69-3.14,20.2-1.58,71.72,1.84,92.26,18.69,112.32,135.09,184.91,244.22,146.82,64.41-22.48,111.64-88.84,116.47-156.53,1.34-18.69,2.02-55.79-.09-73.88-3.33-28.53-26.63-39.41-52.35-40.65-61.75-2.97-126.08-1.3-188.08-1.92-26.74-.27-63.89-4.26-89.7-.79Z"/>
    <path d="M675.82,824.27c17.84,3.09,40.24-1.88,57.45.99,12.73,2.12,12.04,21.7-1.91,22.41l-59.62-.88c-12.51-4.28-9.97-22.63,4.08-22.52ZM672.76,827.26c-10.03,1.78-8.08,16.3.82,17.7,18.25-1.87,42.35,2.73,59.88,0,9.05-1.41,8.2-15.02,1-16.88-7.88-2.04-53.24-2.32-61.7-.82Z"/>
</svg>
