<!-- Copyright (c) 2026 OpenBikeControl UG (haftungsbeschränkt). All rights reserved. Licensed under the Non-Commercial License — see /LICENSE. -->
<svg xmlns="http://www.w3.org/2000/svg" viewBox="12.13 19.01 239.13 247.94">
    <path id="Ebene_1"
          d="m27.33 140.52-1.38 10.93c-2.29 36.13 1.75 74.71.1 111.1L25.5 265c-5.64 5.26-11.06-1.21-12.56-6.45 2.11-48.76-2.62-99.59.01-148.09 1.87-34.54 17.86-90.06 59.53-91.45 54.75 18.62 110.43 36.7 163.42 59.57 26.56 20.31 9.61 67.03 14.12 95.95-1.3 15.04-10.74 25.15-25.64 27.36l-106.45-.34c-5.28-1.22-9.03-5.21-10.72-10.28l-.22-44.78s-1.25-3.51-8.04-8.96c-12.51-10.81-42.87-8.21-55.74-3.81-12.05 3.39-15.89 6.8-15.89 6.8Zm203.99-61.34L74.26 22.24c-37.12-1.15-53.61 46.98-57.13 77.39-5.76 49.66 2.01 105.54-1.17 155.92-.28 3.73 1.93 6.21 4.57 8.45l2.32-1.65 2.17-123.34s2.32-1.35 9.65-4.84c49.01-15.63 65.7 1.79 69.49 5.18l1.46 1.61 3.25 3.9 1.18 45.59c1.78 5.73 6.61 8.39 12.41 8.59 31.99-2.69 69.62 3.5 100.93-.15 13.96-1.63 22.76-11.51 23.68-25.38.17-2.49-.77-4.71-.69-6.84.66-17.97 2.89-40.72 1.66-58.2-.27-3.89-1.24-6.93-2.05-11.46 0 0-4.83-13.45-14.67-17.83"/>
    <g id="Ebene_3" fill="none" stroke="#000" stroke-miterlimit="10" stroke-width="2">
        <path d="M25.51 139.93s-1.66-45.41 5.78-67.29c8.03-23.59 15.76-31.14 22.43-34.55 2.4-1.23 7.43-3.73 13.7-3.44 21.08.97 34.59 32.33 35.76 36.13 5.21 16.96 5.21 75.05 5.21 75.05M108.4 174.59c.08 3.2 4.36 8.8 12.51 8.8h105.05c11.94 0 21.58-8.88 21.23-17.37"/>
        <path d="M47.82 42.26C59.96 31.6 76.46 31 90.79 38.09c20.58 10.03 27.74 30.6 29.4 37.36 4.9 19.92 7.03 48.24 8.28 58.39s7.53 13.67 10.77 13.67h85.72c5.39 0 8.72-5.54 10.77-13.25s8.61-42.14 8.61-42.14"/>
        <path d="M25.92 107.8c0-11.57 16.96-28.84 40.75-28.84s37.92 14.83 41 32.52M165.47 89.06c-1.16-6.94 3.57-18.58 12.59-18.58s13.24 8.44 13.24 18.58c-4.25 5.52-8.72 8.7-8.72 8.7s-3.03 2.5-4.21 2.5-4.21-2.8-4.21-2.8-4.19-2.85-8.7-8.4ZM196.49 91.64c6.94-1.16 18.58 3.57 18.58 12.59s-8.44 13.24-18.58 13.24c-5.52-4.25-8.7-8.72-8.7-8.72s-2.5-3.03-2.5-4.21 2.8-4.21 2.8-4.21 2.85-4.19 8.4-8.7ZM160.89 117.3c-6.94 1.16-18.58-3.57-18.58-12.59s8.44-13.24 18.58-13.24c5.52 4.25 8.7 8.72 8.7 8.72s2.5 3.03 2.5 4.21-2.8 4.21-2.8 4.21-2.85 4.19-8.4 8.7ZM191.12 118.95c1.16 6.94-3.57 18.58-12.59 18.58s-13.24-8.44-13.24-18.58c4.25-5.52 8.72-8.7 8.72-8.7s3.03-2.5 4.21-2.5 4.21 2.8 4.21 2.8 4.19 2.85 8.7 8.4Z"/>
    </g>
</svg>
