<!-- Copyright (c) 2026 OpenBikeControl UG (haftungsbeschränkt). All rights reserved. Licensed under the Non-Commercial License — see /LICENSE. -->
<svg xmlns="http://www.w3.org/2000/svg" id="Ebene_1" viewBox="0 0 223 252.9">
    <path d="M110 6q26 0 48 17l8 9 3-1 20-15q3-1 6 2c4 3 16 14 18 18q3 3 1 6l-15 19c-2 4 3 6 5 9 24 28 24 63 1 92l-7 7v4l16 20-1 6-19 19h-6l-20-15c-4-2-6 2-8 4-11 12-5 24-18 34-14 11-49 11-62-2-8-9-5-20-12-29l-7-7h-4l-20 15q-4 2-7-1l-18-18q-2-2-1-5c0-2 8-11 9-13l7-8c2-4-2-6-4-8q-40-47-2-95c2-3 6-5 4-9L10 42q-1-4 1-7l18-17q3-3 7-1c6 3 13 11 19 14l3 1 10-10Q86 7 110 6m-2 1Q85 9 67 25C54 37 37 54 25 68c-26 28-29 64-2 94l40 41c11 11 9 10 13 24 6 24 47 24 64 14 13-9 8-22 16-33 29-32 75-58 62-108-6-24-32-45-49-63-18-18-32-31-61-30M39 21l-4-3q-3-1-4 1c-5 3-11 11-15 15q-3 1-4 5-1 3 2 6zm147 0l23 23h1q4-3 2-7l-18-18q-6-3-8 2M40 22L16 45q0 3 2 4l25-25zm167 27l2-3-24-24h-1l-2 2 24 24zM57 33c-3 1-12-8-13-8L19 50l9 13zm111 0l29 30 9-13-25-25zm28 138l-30 29 14 10 25-25c-2-5-8-9-9-14M59 201l-30-30-1 2-9 12 26 25s9-8 11-8zm147-15l-25 24q1 3 4 2l23-22q0-3-2-4m-188 0l-2 3 24 23c1 2 4-1 3-1l-20-21-4-3zm-3 4q-4 5-2 9l19 17q4 2 7-3zm194 0l-23 24q3 4 7 2l18-17q3-5-2-9"/>
    <path d="M112 44q11 0 20 7c16 14 30 32 46 46q13 20-2 38c-15 13-29 32-44 45q-19 14-39-1c-16-13-30-31-45-45q-13-20 0-38c16-14 29-32 45-45q8-6 19-7m-3 1l-15 6-46 47q-12 18 1 36c13 15 31 29 44 44q20 15 39 0c13-15 32-29 45-45 8-10 8-26-1-36q-21-23-44-44-9-9-23-8"/>
    <path d="M81 183l1 4 3 35c3 15 20 16 33 15 11 0 21-4 22-17l3-35 1-3-3 38c-1 17-20 19-34 18-11-1-21-4-23-17l-3-34zm24-152h15c4 1 4 6 0 7h-16c-3-1-3-6 1-7m0 2q-4 1 0 4h15q4-3 0-4z"/>
    <path d="M119 210c2 0 2 4 1 4h-14v-4zm-13 3h13l1-1-1-2h-12l-1 1z"/>
    <path d="M111 55q7 0 13 4c16 13 29 32 45 45 5 6 5 16 0 22l-45 45q-11 9-23 0c-13-15-32-29-44-44q-8-8-3-19 4-7 11-13l33-33c5-4 6-7 13-7m-1 1l-9 4-44 44q-8 11 0 21l45 46q10 7 21 0c13-15 32-29 44-45q9-10 1-22l-46-45q-5-4-12-3"/>
    <path d="M149 106c1 0 8 7 8 9v2l-6 6q-4 1-4-2c0-2 5-4 5-6-1-2-7-5-5-8zm-1 1v2l5 6c0 3-6 5-5 7l1 1c2-1 8-6 7-8l-5-7zm-42 42c2 0 5 5 6 5l6-5q3 1 3 3l-7 8h-2l-8-7q0-3 2-4m14 2c-1-2-6 4-7 4-2 1-5-5-8-4-1 1 5 6 6 7h3c1-1 7-6 6-7m-8-80h1l7 6q2 1 1 3c-3 3-7-4-9-4-1 2-8 8-8 3 0-1 6-8 8-8m0 1l-7 6 2 2 6-5c1 0 5 6 6 5l1-2-6-6zm-36 34l2 1c2 4-5 6-4 8 0 2 6 5 4 8h-3l-6-6q-2-3 0-4zm1 1q-3 1-4 4c-2 2-6 3-3 6l6 6q2 0 1-2c0-1-5-4-5-6 1-2 7-6 5-8"/>
</svg>
